<svg xmlns="http://www.w3.org/2000/svg" xmlns:xlink="http://www.w3.org/1999/xlink" version="1.1" style="enable-background:new 0 0 240 234;" xml:space="preserve" width="281.44143967231406" height="280.84684484696385"><rect id="backgroundrect" width="100%" height="100%" x="0" y="0" fill="none" stroke="none" style="" class=""/>
<style type="text/css">
	.st0{fill:#001E36;}
	.st1{fill:#31A8FF;}
</style>

<g class="currentLayer" style=""><title>Layer 1</title><g id="Layer_2_1_" class="">
	<g id="Surfaces">
		<g id="Photo_Surface">
			<g id="Outline_no_shadow">
				<path class="st0" d="M63.220720291137695,23.42342185974121 h155 C241.7207202911377,23.42342185974121 260.7207202911377,42.42342185974121 260.7207202911377,65.92342185974121 v149 c0,23.5 -19,42.5 -42.5,42.5 h-155 C39.720720291137695,257.4234218597412 20.720720291137695,238.4234218597412 20.720720291137695,214.9234218597412 v-149 C20.720720291137695,42.42342185974121 39.720720291137695,23.42342185974121 63.220720291137695,23.42342185974121 z" id="svg_1"/>
			</g>
		</g>
	</g>
	<g id="Outlined_Mnemonics_Logos">
		<g id="Ps">
			<path class="st1" d="M74.7207202911377,187.5234218597412 V84.62342185974121 c0,-0.7000000000000002 0.3000000000000001,-1.1 1,-1.1 c1.7000000000000002,0 3.3,0 5.6,-0.1 c2.4,-0.1 4.9,-0.1 7.6,-0.2 c2.7,-0.1 5.6,-0.1 8.7,-0.2 c3.1,-0.1 6.1,-0.1 9.1,-0.1 c8.2,0 15,1 20.6,3.1 c5,1.7000000000000002 9.6,4.5 13.4,8.2 c3.2,3.2 5.7,7.1 7.3,11.4 c1.5,4.2 2.3,8.5 2.3,13 c0,8.6 -2,15.7 -6,21.3 c-4,5.6 -9.6,9.8 -16.1,12.2 c-6.8,2.5 -14.3,3.4 -22.5,3.4 c-2.4,0 -4,0 -5,-0.1 c-1,-0.1 -2.4,-0.1 -4.3,-0.1 v32.1 c0.1,0.7000000000000002 -0.4,1.3 -1.1,1.4 c-0.1,0 -0.2,0 -0.4,0 H75.9207202911377 C75.1207202911377,188.82342185974122 74.7207202911377,188.4234218597412 74.7207202911377,187.5234218597412 zM96.52072029113769,102.82342185974122 V136.4234218597412 c1.4,0.1 2.7,0.2 3.9,0.2 H105.7207202911377 c3.9,0 7.8,-0.6000000000000002 11.5,-1.8 c3.2,-0.9 6,-2.8 8.2,-5.3 c2.1,-2.5 3.1,-5.9 3.1,-10.3 c0.1,-3.1 -0.7000000000000002,-6.2 -2.3,-8.9 c-1.7000000000000002,-2.6 -4.1,-4.6 -7,-5.7 c-3.7,-1.5 -7.7,-2.1 -11.8,-2 c-2.6,0 -4.9,0 -6.8,0.1 C98.6207202911377,102.62342185974121 97.2207202911377,102.72342185974121 96.52072029113769,102.82342185974122 L96.52072029113769,102.82342185974122 z" id="svg_2"/>
			<path class="st1" d="M212.7207202911377,130.32342185974122 c-3,-1.6 -6.2,-2.7 -9.6,-3.4 c-3.7,-0.8 -7.4,-1.3 -11.2,-1.3 c-2,-0.1 -4.1,0.2 -6,0.7000000000000002 c-1.3,0.3000000000000001 -2.4,1 -3.1,2 c-0.5,0.8 -0.8,1.8 -0.8,2.7 c0,0.9 0.4,1.8 1,2.6 c0.9,1.1 2.1,2 3.4,2.7 c2.3,1.2 4.7,2.3 7.1,3.3 c5.4,1.8 10.6,4.3 15.4,7.3 c3.3,2.1 6,4.9 7.9,8.3 c1.6,3.2 2.4,6.7 2.3,10.3 c0.1,4.7 -1.3,9.4 -3.9,13.3 c-2.8,4 -6.7,7.1 -11.2,8.9 c-4.9,2.1 -10.9,3.2 -18.1,3.2 c-4.6,0 -9.1,-0.4 -13.6,-1.3 c-3.5,-0.6000000000000002 -7,-1.7000000000000002 -10.2,-3.2 c-0.7000000000000002,-0.4 -1.2,-1.1 -1.1,-1.9 v-17.4 c0,-0.3000000000000001 0.1,-0.7000000000000002 0.4,-0.9 c0.3000000000000001,-0.2 0.6000000000000002,-0.1 0.9,0.1 c3.9,2.3 8,3.9 12.4,4.9 c3.8,1 7.8,1.5 11.8,1.5 c3.8,0 6.5,-0.5 8.3,-1.4 c1.6,-0.7000000000000002 2.7,-2.4 2.7,-4.2 c0,-1.4 -0.8,-2.7 -2.4,-4 c-1.6,-1.3 -4.9,-2.8 -9.8,-4.7 c-5.1,-1.8 -9.8,-4.2 -14.2,-7.2 c-3.1,-2.2 -5.7,-5.1 -7.6,-8.5 c-1.6,-3.2 -2.4,-6.7 -2.3,-10.2 c0,-4.3 1.2,-8.4 3.4,-12.1 c2.5,-4 6.2,-7.2 10.5,-9.2 c4.7,-2.4 10.6,-3.5 17.7,-3.5 c4.1,0 8.3,0.3000000000000001 12.4,0.9 c3,0.4 5.9,1.2 8.6,2.3 c0.4,0.1 0.8,0.5 1,0.9 c0.1,0.4 0.2,0.8 0.2,1.2 v16.3 c0,0.4 -0.2,0.8 -0.5,1 C213.6207202911377,130.5234218597412 213.1207202911377,130.5234218597412 212.7207202911377,130.32342185974122 z" id="svg_3"/>
		</g>
	</g>
</g></g></svg>